<svg width="24" height="25" viewBox="0 0 24 25" fill="none" xmlns="http://www.w3.org/2000/svg">
<path d="M6.90343 4.68531L15.4033 8.32645L12 9.78445L3.549 6.16259C3.73929 5.96845 3.972 5.81159 4.23686 5.71002L6.90343 4.68402V4.68531ZM8.62371 4.02317L10.6166 3.25688C11.5075 2.91437 12.4938 2.91437 13.3847 3.25688L19.7644 5.71002C20.028 5.81288 20.2607 5.96716 20.451 6.16259L17.0361 7.62574L8.62371 4.02317ZM20.9923 7.33002L12.6429 10.9082V20.4867C12.8949 20.4443 13.1443 20.3762 13.3847 20.2836L19.7644 17.8292C20.1281 17.6891 20.4409 17.4422 20.6614 17.1208C20.882 16.7995 21 16.4189 21 16.0292V7.51002C21 7.44959 20.9974 7.38916 20.991 7.33002H20.9923ZM11.3571 20.4867V10.9082L3.009 7.33002C3.00321 7.38985 3.0002 7.44991 3 7.51002V16.0292C3.00005 16.4191 3.11828 16.7998 3.33908 17.1211C3.55989 17.4425 3.87291 17.6893 4.23686 17.8292L10.6153 20.2836C10.857 20.3762 11.1051 20.4443 11.3571 20.4867Z" fill="#CBCDDE"/>
</svg>
