<svg width="24" height="25" viewBox="0 0 24 25" fill="none" xmlns="http://www.w3.org/2000/svg">
<g clip-path="url(#clip0)">
<path d="M12 4.14286C12.7578 4.14286 13.4845 4.44388 14.0203 4.97969C14.5561 5.51551 14.8571 6.24224 14.8571 7V7.57143H9.14286V7C9.14286 6.24224 9.44388 5.51551 9.9797 4.97969C10.5155 4.44388 11.2422 4.14286 12 4.14286ZM16 7.57143V7C16 5.93913 15.5786 4.92172 14.8284 4.17157C14.0783 3.42143 13.0609 3 12 3C10.9391 3 9.92172 3.42143 9.17157 4.17157C8.42143 4.92172 8 5.93913 8 7V7.57143H4V19C4 19.6062 4.24082 20.1876 4.66947 20.6162C5.09812 21.0449 5.67951 21.2857 6.28571 21.2857H17.7143C18.3205 21.2857 18.9019 21.0449 19.3305 20.6162C19.7592 20.1876 20 19.6062 20 19V7.57143H16Z" fill="#CBCDDE"/>
</g>
<defs>
<clipPath id="clip0">
<rect width="24" height="24" fill="white" transform="translate(0 0.148438)"/>
</clipPath>
</defs>
</svg>
