<svg width="24" height="25" viewBox="0 0 24 25" fill="none" xmlns="http://www.w3.org/2000/svg">
<path d="M5 5.14844H11C11.55 5.14844 12 4.69844 12 4.14844C12 3.59844 11.55 3.14844 11 3.14844H5C3.9 3.14844 3 4.04844 3 5.14844V19.1484C3 20.2484 3.9 21.1484 5 21.1484H11C11.55 21.1484 12 20.6984 12 20.1484C12 19.5984 11.55 19.1484 11 19.1484H5V5.14844Z" fill="#CBCDDE"/>
<path d="M20.65 11.799L17.86 9.00897C17.7905 8.93752 17.7012 8.88845 17.6036 8.86803C17.506 8.84762 17.4045 8.85679 17.3121 8.89438C17.2198 8.93197 17.1408 8.99625 17.0851 9.07902C17.0295 9.16178 16.9999 9.25926 17 9.35897V11.149H10C9.45 11.149 9 11.599 9 12.149C9 12.699 9.45 13.149 10 13.149H17V14.939C17 15.389 17.54 15.609 17.85 15.289L20.64 12.499C20.84 12.309 20.84 11.989 20.65 11.799Z" fill="#CBCDDE"/>
</svg>
