<svg width="476" height="132" viewBox="0 0 476 132" fill="none" xmlns="http://www.w3.org/2000/svg">
<path d="M214.826 18.2554V62.6797H208.984V29.5541L194.219 62.6797H190.11L175.281 29.4899V62.6797H169.439V18.2554H175.73L192.164 54.9761L208.599 18.2554H214.826ZM222.551 44.9613C222.551 41.3663 223.278 38.2207 224.733 35.5244C226.189 32.7853 228.179 30.6668 230.704 29.1689C233.272 27.671 236.118 26.922 239.242 26.922C242.323 26.922 244.998 27.5854 247.266 28.9121C249.535 30.2388 251.225 31.908 252.338 33.9195V27.4998H258.244V62.6797H252.338V56.1316C251.183 58.1859 249.449 59.8978 247.138 61.2674C244.87 62.5941 242.216 63.2575 239.178 63.2575C236.053 63.2575 233.229 62.4871 230.704 60.9464C228.179 59.4056 226.189 57.2443 224.733 54.4625C223.278 51.6806 222.551 48.5136 222.551 44.9613ZM252.338 45.0255C252.338 42.3721 251.803 40.061 250.733 38.0923C249.663 36.1236 248.208 34.6256 246.368 33.5985C244.57 32.5285 242.58 31.9936 240.397 31.9936C238.215 31.9936 236.225 32.5071 234.427 33.5343C232.63 34.5614 231.196 36.0594 230.126 38.0281C229.056 39.9968 228.521 42.3079 228.521 44.9613C228.521 47.6576 229.056 50.0115 230.126 52.023C231.196 53.9917 232.63 55.511 234.427 56.581C236.225 57.6081 238.215 58.1217 240.397 58.1217C242.58 58.1217 244.57 57.6081 246.368 56.581C248.208 55.511 249.663 53.9917 250.733 52.023C251.803 50.0115 252.338 47.679 252.338 45.0255ZM273.958 33.2133C274.986 31.2018 276.441 29.6397 278.324 28.5269C280.25 27.4142 282.582 26.8578 285.321 26.8578V32.8923H283.78C277.232 32.8923 273.958 36.4445 273.958 43.549V62.6797H268.116V27.4998H273.958V33.2133ZM295.082 21.7863C293.969 21.7863 293.028 21.4011 292.257 20.6307C291.487 19.8603 291.102 18.9188 291.102 17.806C291.102 16.6933 291.487 15.7517 292.257 14.9814C293.028 14.211 293.969 13.8258 295.082 13.8258C296.152 13.8258 297.051 14.211 297.778 14.9814C298.549 15.7517 298.934 16.6933 298.934 17.806C298.934 18.9188 298.549 19.8603 297.778 20.6307C297.051 21.4011 296.152 21.7863 295.082 21.7863ZM297.907 27.4998V62.6797H292.065V27.4998H297.907ZM305.681 44.9613C305.681 41.3663 306.408 38.2207 307.863 35.5244C309.318 32.7853 311.309 30.6668 313.834 29.1689C316.402 27.671 319.248 26.922 322.372 26.922C325.453 26.922 328.128 27.5854 330.396 28.9121C332.665 30.2388 334.355 31.908 335.468 33.9195V27.4998H341.374V62.6797H335.468V56.1316C334.312 58.1859 332.579 59.8978 330.268 61.2674C328 62.5941 325.346 63.2575 322.308 63.2575C319.183 63.2575 316.359 62.4871 313.834 60.9464C311.309 59.4056 309.318 57.2443 307.863 54.4625C306.408 51.6806 305.681 48.5136 305.681 44.9613ZM335.468 45.0255C335.468 42.3721 334.933 40.061 333.863 38.0923C332.793 36.1236 331.338 34.6256 329.498 33.5985C327.7 32.5285 325.71 31.9936 323.527 31.9936C321.345 31.9936 319.355 32.5071 317.557 33.5343C315.76 34.5614 314.326 36.0594 313.256 38.0281C312.186 39.9968 311.651 42.3079 311.651 44.9613C311.651 47.6576 312.186 50.0115 313.256 52.023C314.326 53.9917 315.76 55.511 317.557 56.581C319.355 57.6081 321.345 58.1217 323.527 58.1217C325.71 58.1217 327.7 57.6081 329.498 56.581C331.338 55.511 332.793 53.9917 333.863 52.023C334.933 50.0115 335.468 47.679 335.468 45.0255ZM220.925 70.4209V115.68H208.342V90.7071L199.804 115.68H189.276L180.673 90.5145V115.68H168.091V70.4209H183.305L194.668 99.823L205.774 70.4209H220.925ZM262.497 97.2552C262.497 98.2395 262.433 99.2239 262.304 100.208H238.487C238.615 102.177 239.15 103.653 240.092 104.638C241.076 105.579 242.317 106.05 243.815 106.05C245.913 106.05 247.41 105.109 248.309 103.225H261.726C261.17 105.708 260.079 107.933 258.452 109.902C256.869 111.828 254.857 113.347 252.418 114.46C249.978 115.573 247.282 116.129 244.329 116.129C240.777 116.129 237.61 115.38 234.828 113.882C232.089 112.384 229.927 110.244 228.344 107.462C226.803 104.681 226.033 101.407 226.033 97.6404C226.033 93.8741 226.803 90.6215 228.344 87.8824C229.885 85.1006 232.025 82.9607 234.764 81.4627C237.546 79.9648 240.734 79.2158 244.329 79.2158C247.881 79.2158 251.027 79.9434 253.766 81.3985C256.505 82.8537 258.645 84.9508 260.186 87.6898C261.726 90.3861 262.497 93.5745 262.497 97.2552ZM249.657 94.1095C249.657 92.5688 249.144 91.3705 248.117 90.5145C247.089 89.6157 245.806 89.1664 244.265 89.1664C242.724 89.1664 241.462 89.5943 240.477 90.4503C239.493 91.2635 238.851 92.4832 238.551 94.1095H249.657ZM292.516 80.4998V87.8824H306.961V97.4478H292.516V105.601H308.887V115.68H279.934V70.4209H308.887V80.4998H292.516ZM338.664 79.3442C342.816 79.3442 346.111 80.7352 348.551 83.517C350.99 86.2561 352.21 89.9795 352.21 94.6873V115.68H339.627V96.3564C339.627 94.3021 339.092 92.6972 338.022 91.5416C336.952 90.3433 335.519 89.7441 333.721 89.7441C331.838 89.7441 330.362 90.3433 329.292 91.5416C328.222 92.6972 327.687 94.3021 327.687 96.3564V115.68H315.104V79.6652H327.687V84.801C328.799 83.1746 330.297 81.8693 332.18 80.885C334.064 79.8578 336.225 79.3442 338.664 79.3442ZM376.383 103.803L383.124 79.6652H396.541L384.151 115.68H368.487L356.097 79.6652H369.514L376.383 103.803ZM407.16 76.327C404.934 76.327 403.137 75.7278 401.767 74.5295C400.441 73.2883 399.777 71.7476 399.777 69.9073C399.777 68.0242 400.441 66.4621 401.767 65.2209C403.137 63.9798 404.934 63.3592 407.16 63.3592C409.343 63.3592 411.097 63.9798 412.424 65.2209C413.794 66.4621 414.478 68.0242 414.478 69.9073C414.478 71.7476 413.794 73.2883 412.424 74.5295C411.097 75.7278 409.343 76.327 407.16 76.327ZM413.387 79.6652V115.68H400.804V79.6652H413.387ZM418.498 97.6404C418.498 93.9169 419.162 90.6643 420.488 87.8824C421.858 85.1006 423.698 82.9607 426.009 81.4627C428.363 79.9648 430.974 79.2158 433.841 79.2158C436.324 79.2158 438.463 79.708 440.261 80.6924C442.058 81.6767 443.449 83.0035 444.434 84.6726V79.6652H457.016V115.68H444.434V110.672C443.449 112.341 442.037 113.668 440.197 114.653C438.399 115.637 436.281 116.129 433.841 116.129C430.974 116.129 428.363 115.38 426.009 113.882C423.698 112.384 421.858 110.244 420.488 107.462C419.162 104.638 418.498 101.364 418.498 97.6404ZM444.434 97.6404C444.434 95.3293 443.792 93.5104 442.508 92.1836C441.267 90.8569 439.726 90.1935 437.886 90.1935C436.003 90.1935 434.44 90.8569 433.199 92.1836C431.958 93.4676 431.338 95.2865 431.338 97.6404C431.338 99.9514 431.958 101.792 433.199 103.161C434.44 104.488 436.003 105.151 437.886 105.151C439.726 105.151 441.267 104.488 442.508 103.161C443.792 101.835 444.434 99.9942 444.434 97.6404Z" fill="#F8F8FA"/>
<path d="M119.676 27.0875C119.58 27.1038 119.51 27.1601 119.467 27.2563C119.424 27.3525 119.414 27.4679 119.437 27.6023L119.593 28.5245C119.616 28.659 119.664 28.7646 119.736 28.8413C119.808 28.918 119.892 28.9482 119.988 28.9319L123.96 29.8002L126.089 33.2638C126.105 33.3598 126.161 33.4294 126.258 33.4723C126.354 33.5153 126.469 33.5254 126.604 33.5026L127.526 33.3463C127.66 33.3235 127.766 33.2759 127.843 33.2036C127.919 33.1313 127.949 33.0472 127.933 32.9511L127.376 29.6658L134.178 20.1227L138.897 30.4699C138.939 30.7197 139.067 30.9203 139.281 31.0719C139.494 31.2235 139.726 31.2781 139.975 31.2358L141.82 30.9231C142.089 30.8775 142.294 30.7488 142.436 30.537C142.578 30.3251 142.628 30.0943 142.586 29.8446L139.635 12.4382L143.948 6.40032C144.343 5.81938 144.716 4.72352 145.065 3.11276C145.415 1.502 145.381 0.54423 144.964 0.23945C144.546 -0.06533 143.63 0.213524 142.215 1.07601C140.8 1.9385 139.894 2.66022 139.499 3.24116L135.186 9.27905L117.78 12.2299C117.53 12.2722 117.329 12.4001 117.178 12.6136C117.026 12.827 116.971 13.0586 117.014 13.3084L117.326 15.1528C117.369 15.4025 117.497 15.6032 117.71 15.7548C117.923 15.9063 118.155 15.961 118.405 15.9186L129.729 16.9635L122.903 26.5403L119.676 27.0875Z" fill="#F8F8FA"/>
<path fill-rule="evenodd" clip-rule="evenodd" d="M120.444 39.989V93.5488C120.443 95.3023 119.983 97.025 119.11 98.5455C118.237 100.066 116.98 101.331 115.466 102.215L67.7903 129.961C65.4927 131.296 62.8825 132 60.2249 132C57.5674 132 54.9572 131.296 52.6596 129.961L4.98398 102.215C4.89585 102.164 4.80859 102.111 4.72222 102.057C14.3125 105.464 24.4301 107.189 34.6283 107.147C46.216 107.098 57.6806 104.768 68.3676 100.289C79.0547 95.8094 88.7548 89.269 96.9143 81.041C105.074 72.813 111.533 63.0584 115.922 52.3343C117.774 47.8112 119.241 43.1531 120.317 38.4091C120.4 38.9297 120.443 39.4579 120.444 39.989ZM118.616 34.2265C114.826 42.062 109.696 49.4141 103.224 55.9402C75.2393 84.1606 31.6017 87.4226 0 65.6101V39.989C0.00213794 38.236 0.463371 36.5141 1.33779 34.9948C2.21221 33.4754 3.46932 32.2115 4.98398 31.329L52.6533 3.58306C54.9503 2.24579 57.5607 1.54126 60.2187 1.54126C62.8766 1.54126 65.487 2.24579 67.784 3.58306L115.46 31.329C116.711 32.0582 117.787 33.0477 118.616 34.2265Z" fill="#23384D"/>
<rect width="66.6736" height="17.5035" transform="matrix(0.866025 -0.5 0.866025 0.5 24.2905 45.2847)" fill="#325C86"/>
<rect width="17.7986" height="17.5035" transform="matrix(0.866025 0.5 -2.20305e-08 1 23.1206 46.2422)" fill="#325C86"/>
</svg>
