<svg width="116" height="111" viewBox="0 0 116 111" fill="none" xmlns="http://www.w3.org/2000/svg">
<path d="M69.088 39.4277H37.6387L21.6562 48.7079H73.728L69.088 39.4277Z" fill="#6B6C75" stroke="#6B6C75" stroke-width="0.128891"/>
<path d="M15.2919 0.0351562L0 9.52239L19.0993 48.9068L34.3912 39.482L15.2919 0.0351562Z" fill="#9A9BA8"/>
<path d="M95.1164 48.9102H19.0938V110.64H95.1164V48.9102Z" fill="#9A9BA8"/>
<path d="M110.226 101.089L95.1211 110.701V48.909L110.226 39.3594V101.089Z" fill="#9A9BA8"/>
<path d="M95.1204 107.705C94.8707 107.705 94.6211 107.518 94.6211 107.206V53.2161C94.6211 52.9665 94.8083 52.7168 95.1204 52.7168C95.4325 52.7168 95.6197 52.904 95.6197 53.2161V107.206C95.6197 107.518 95.4325 107.705 95.1204 107.705Z" fill="white"/>
<path d="M42.3125 48.9102V49.035C42.3125 65.2007 32.0139 72.9403 19.0938 73.3772V48.9726H42.3125V48.9102Z" fill="#6B6C75"/>
<path d="M35.9499 70.1289L30.6445 74.4356L37.1982 77.3067L35.9499 70.1289Z" fill="#6B6C75"/>
<path d="M86.1295 62.5781H48.8672V66.3231H86.1295V62.5781Z" fill="white"/>
<path d="M71.2161 73.3773H64.7248C63.9758 73.3773 63.4141 72.7532 63.4141 72.0666C63.4141 71.3176 64.0382 70.7559 64.7248 70.7559H71.2161C71.965 70.7559 72.5268 71.38 72.5268 72.0666C72.5892 72.7532 71.965 73.3773 71.2161 73.3773Z" fill="#6B6C75"/>
<path d="M78.3312 73.3754H76.1467C75.3977 73.3754 74.8359 72.7512 74.8359 72.0647C74.8359 71.3157 75.4601 70.7539 76.1467 70.7539H78.3312C79.0802 70.7539 79.642 71.3781 79.642 72.0647C79.7044 72.7512 79.0802 73.3754 78.3312 73.3754Z" fill="#6B6C75"/>
<path d="M84.7531 73.3754H82.5686C81.8196 73.3754 81.2578 72.7512 81.2578 72.0647C81.2578 71.3157 81.882 70.7539 82.5686 70.7539H84.7531C85.5021 70.7539 86.0638 71.3781 86.0638 72.0647C86.0638 72.7512 85.5021 73.3754 84.7531 73.3754Z" fill="#6B6C75"/>
<path d="M110.221 39.3594L101.795 44.7271L95.1788 48.9714H19.0938L34.136 39.3594H37.7561L25.8347 46.5996L26.9581 48.4721H72.9587L67.4037 39.3594H110.221Z" fill="#6B6C75"/>
<path d="M73.2109 48.4728C77.7673 45.6641 83.9465 44.2285 91.5612 44.2285C93.8082 44.2285 96.18 44.3534 98.6766 44.603C99.4256 44.6655 100.05 44.7903 100.612 44.9151L94.9941 48.4728H73.2109Z" fill="white"/>
<path d="M91.563 43.793V44.7292C93.81 44.7292 96.1818 44.8541 98.616 45.1037C98.8657 45.1037 99.1153 45.1661 99.365 45.1661L94.9335 47.9748H75.0228C79.3295 45.7903 84.8845 44.6668 91.563 44.6668V43.793ZM91.563 43.793C83.9483 43.793 76.8953 45.1662 71.6523 48.9735H95.1831L101.799 44.7916C101.05 44.542 100.052 44.3547 98.7408 44.1675C96.3066 43.9178 93.9348 43.793 91.563 43.793Z" fill="#6B6C75"/>
<path d="M115.972 15.2656L100.93 24.8153L95.125 49.0326L110.23 39.483L115.972 15.2656Z" fill="#9A9BA8"/>
<path d="M96.873 48.3469C96.7482 48.3469 96.561 48.2845 96.4985 48.1596C96.3737 47.9724 96.4361 47.6603 96.6234 47.5355L108.233 40.1704C108.42 40.0456 108.732 40.108 108.857 40.2953C108.982 40.4825 108.919 40.7946 108.732 40.9194L97.1227 48.2845C97.0603 48.2845 96.9354 48.3469 96.873 48.3469Z" fill="white"/>
</svg>
