<svg width="36" height="30" viewBox="0 0 36 30" fill="none" xmlns="http://www.w3.org/2000/svg">
<path d="M2.47481 12.9149C12.1385 8.68127 18.5824 5.89017 21.8067 4.54166C31.0125 0.69137 32.9254 0.0225349 34.1722 0.000214112C34.4465 -0.00440783 35.0596 0.0639293 35.4568 0.387991C35.7921 0.661623 35.8844 1.03126 35.9286 1.29069C35.9727 1.55013 36.0277 2.14112 35.984 2.60291C35.4851 7.87366 33.3265 20.6644 32.2283 26.5677C31.7637 29.0656 30.8487 29.9032 29.9629 29.9851C28.0379 30.1633 26.5761 28.7059 24.7116 27.4769C21.794 25.5538 20.1458 24.3567 17.3138 22.4801C14.041 20.3113 16.1626 19.1193 18.0278 17.1713C18.5159 16.6615 26.9977 8.90392 27.1618 8.20018C27.1824 8.11217 27.2014 7.78409 27.0076 7.61085C26.8138 7.43762 26.5277 7.49686 26.3213 7.54397C26.0286 7.61076 21.3678 10.7085 12.3388 16.8372C11.0158 17.7507 9.81749 18.1957 8.74386 18.1724C7.56026 18.1467 5.2835 17.4995 3.59096 16.9463C1.51499 16.2677 -0.134951 15.9089 0.00872133 14.7565C0.0835549 14.1563 0.905585 13.5424 2.47481 12.9149Z" fill="white"/>
</svg>
