<svg width="50" height="50" viewBox="0 0 50 50" fill="none" xmlns="http://www.w3.org/2000/svg">
<path d="M39.7438 10.2666C35.8146 6.33538 30.5896 4.16871 25.0229 4.16663C13.5521 4.16663 4.21667 13.4979 4.21251 24.9687C4.21042 28.6354 5.16876 32.2145 6.98959 35.3687L4.16667 45.8333L15.0688 43.2562C18.1083 44.9145 21.5292 45.7875 25.0125 45.7895H25.0208C36.4896 45.7895 45.825 36.4562 45.8313 24.9875C45.8354 19.427 43.6729 14.2 39.7438 10.2666ZM35.2042 32.4041C34.7708 33.6187 32.6479 34.7895 31.6938 34.875C30.7396 34.9625 29.8458 35.3062 25.4542 33.575C20.1688 31.4916 16.8313 26.0729 16.5729 25.727C16.3125 25.3791 14.45 22.9083 14.45 20.35C14.45 17.7916 15.7938 16.5333 16.2708 16.0145C16.7479 15.4937 17.3104 15.3645 17.6583 15.3645C18.0042 15.3645 18.3521 15.3645 18.6542 15.377C19.025 15.3916 19.4354 15.4104 19.825 16.275C20.2875 17.3041 21.2979 19.875 21.4271 20.1354C21.5563 20.3958 21.6438 20.7 21.4708 21.0458C21.2979 21.3916 21.2104 21.6083 20.9521 21.9125C20.6917 22.2166 20.4063 22.5895 20.1729 22.8229C19.9125 23.0812 19.6417 23.3645 19.9438 23.8833C20.2479 24.4041 21.2896 26.1062 22.8354 27.4833C24.8229 29.2541 26.4958 29.802 27.0167 30.0645C27.5375 30.325 27.8396 30.2812 28.1438 29.9333C28.4479 29.5875 29.4438 28.4166 29.7896 27.8958C30.1354 27.375 30.4833 27.4625 30.9604 27.6354C31.4375 27.8083 33.9938 29.0666 34.5125 29.327C35.0333 29.5875 35.3792 29.7166 35.5083 29.9333C35.6375 30.1479 35.6375 31.1895 35.2042 32.4041Z" fill="white"/>
</svg>
